<svg xmlns="http://www.w3.org/2000/svg" viewBox="0 0 512 512" fill="none">
  <defs>
    <linearGradient id="bg" x1="68" y1="52" x2="440" y2="460" gradientUnits="userSpaceOnUse">
      <stop stop-color="#241047"/>
      <stop offset="0.5" stop-color="#5B2CD7"/>
      <stop offset="1" stop-color="#FF5CA8"/>
    </linearGradient>
    <linearGradient id="ring" x1="133" y1="118" x2="390" y2="385" gradientUnits="userSpaceOnUse">
      <stop stop-color="#FFF7AE"/>
      <stop offset="1" stop-color="#FFD6F0"/>
    </linearGradient>
    <linearGradient id="spark" x1="224" y1="139" x2="304" y2="326" gradientUnits="userSpaceOnUse">
      <stop stop-color="#FFFFFF"/>
      <stop offset="1" stop-color="#FFE2FA"/>
    </linearGradient>
    <filter id="glow" x="97" y="82" width="318" height="318" filterUnits="userSpaceOnUse" color-interpolation-filters="sRGB">
      <feFlood flood-opacity="0" result="BackgroundImageFix"/>
      <feBlend in="SourceGraphic" in2="BackgroundImageFix" result="shape"/>
      <feGaussianBlur stdDeviation="14" result="effect1_foregroundBlur_0_1"/>
    </filter>
  </defs>
  <rect x="32" y="32" width="448" height="448" rx="136" fill="url(#bg)"/>
  <rect x="48" y="48" width="416" height="416" rx="120" stroke="#FFFFFF" stroke-opacity="0.18" stroke-width="2"/>
  <g filter="url(#glow)">
    <path d="M361 149C321 116 268 104 221 115C171 127 133 163 121 215C109 268 126 324 169 357C209 388 264 399 311 387C360 375 399 339 391 284C386 252 359 232 330 228C304 224 277 234 262 256C250 274 247 298 260 317C275 340 311 344 332 326C347 313 352 290 341 273" stroke="url(#ring)" stroke-width="34" stroke-linecap="round"/>
  </g>
  <path d="M274 140L294 191L348 212L297 232L277 284L257 233L204 213L255 192L274 140Z" fill="url(#spark)"/>
  <circle cx="360" cy="158" r="16" fill="#FFF3C1"/>
  <circle cx="171" cy="344" r="10" fill="#FFD7F1"/>
</svg>
